<mxfile host="app.diagrams.net" modified="2020-11-27T10:52:32.458Z" agent="5.0 (Macintosh; Intel Mac OS X 10_15_7) AppleWebKit/537.36 (KHTML, like Gecko) Chrome/87.0.4280.67 Safari/537.36" etag="7vlZ0ekg4S9H2qSjvNYV" version="13.10.2" type="github">
  <diagram id="hUPgtRvlfxiUSDfQbxEq" name="Page-1">
    <mxGraphModel dx="1186" dy="480" grid="1" gridSize="10" guides="1" tooltips="1" connect="1" arrows="1" fold="1" page="1" pageScale="1" pageWidth="413" pageHeight="583" math="0" shadow="0">
      <root>
        <mxCell id="0" />
        <mxCell id="1" parent="0" />
        <mxCell id="tMqXF5HZhTGsrodSmE5L-1" value="發票作業重構" style="whiteSpace=wrap;rounded=1;shadow=1;fillColor=#10739E;strokeColor=none;fontColor=#FFFFFF;fontStyle=1;fontSize=24" vertex="1" parent="1">
          <mxGeometry x="410" y="40" width="340" height="60" as="geometry" />
        </mxCell>
        <mxCell id="tMqXF5HZhTGsrodSmE5L-2" value="發票作業頁" style="whiteSpace=wrap;rounded=1;fillColor=#F2931E;strokeColor=none;shadow=1;fontColor=#FFFFFF;fontStyle=1;fontSize=14" vertex="1" parent="1">
          <mxGeometry x="90" y="179.9999999999998" width="140" height="60" as="geometry" />
        </mxCell>
        <mxCell id="tMqXF5HZhTGsrodSmE5L-3" value="確認AP是否影響" style="whiteSpace=wrap;rounded=1;fillColor=#F2931E;strokeColor=none;shadow=1;fontColor=#FFFFFF;fontStyle=1;fontSize=14" vertex="1" parent="1">
          <mxGeometry x="980" y="179.9999999999998" width="140" height="60" as="geometry" />
        </mxCell>
        <mxCell id="tMqXF5HZhTGsrodSmE5L-4" value="" style="edgeStyle=orthogonalEdgeStyle;rounded=0;orthogonalLoop=1;jettySize=auto;html=1;fontColor=#12AAB5;align=center;" edge="1" parent="1" source="tMqXF5HZhTGsrodSmE5L-5" target="tMqXF5HZhTGsrodSmE5L-32">
          <mxGeometry relative="1" as="geometry">
            <Array as="points">
              <mxPoint x="160.18" y="989" />
              <mxPoint x="160.18" y="989" />
            </Array>
          </mxGeometry>
        </mxCell>
        <mxCell id="tMqXF5HZhTGsrodSmE5L-5" value="入帳_發票及帳款處理" style="whiteSpace=wrap;rounded=1;strokeColor=none;shadow=1;fontColor=#FFFFFF;fontStyle=1;fontSize=14;fillColor=#12AAB5;" vertex="1" parent="1">
          <mxGeometry x="92.18" y="997" width="141.88" height="60" as="geometry" />
        </mxCell>
        <mxCell id="tMqXF5HZhTGsrodSmE5L-6" value="發票作業列表" style="whiteSpace=wrap;rounded=1;fillColor=#12AAB5;strokeColor=none;shadow=1;fontColor=#FFFFFF;" vertex="1" parent="1">
          <mxGeometry x="100" y="300.0000000000001" width="120" height="60" as="geometry" />
        </mxCell>
        <mxCell id="tMqXF5HZhTGsrodSmE5L-7" value="" style="edgeStyle=elbowEdgeStyle;elbow=vertical;rounded=0;fontColor=#000000;endArrow=none;endFill=0;strokeWidth=8;strokeColor=#23445D;" edge="1" parent="1" source="tMqXF5HZhTGsrodSmE5L-2" target="tMqXF5HZhTGsrodSmE5L-6">
          <mxGeometry width="100" height="100" relative="1" as="geometry">
            <mxPoint x="20" y="290" as="sourcePoint" />
            <mxPoint x="120" y="190" as="targetPoint" />
          </mxGeometry>
        </mxCell>
        <mxCell id="tMqXF5HZhTGsrodSmE5L-8" value="back-end" style="whiteSpace=wrap;rounded=1;fillColor=#12AAB5;strokeColor=none;shadow=1;fontColor=#FFFFFF;" vertex="1" parent="1">
          <mxGeometry x="1000" y="260" width="90" height="25" as="geometry" />
        </mxCell>
        <mxCell id="tMqXF5HZhTGsrodSmE5L-9" value="拋單1106&#xa;(cronjob 5 mis)" style="whiteSpace=wrap;rounded=1;fillColor=#999999;strokeColor=none;shadow=1;fontColor=#FFFFFF;fontStyle=0" vertex="1" parent="1">
          <mxGeometry x="1069.9999999999993" y="391.0000000000002" width="120" height="60" as="geometry" />
        </mxCell>
        <mxCell id="tMqXF5HZhTGsrodSmE5L-10" value="發票寫回1574(號碼寫回invoice)" style="whiteSpace=wrap;rounded=1;fillColor=#999999;strokeColor=none;shadow=1;fontColor=#FFFFFF;fontStyle=0" vertex="1" parent="1">
          <mxGeometry x="1069.9999999999995" y="471.0000000000002" width="120" height="60" as="geometry" />
        </mxCell>
        <mxCell id="tMqXF5HZhTGsrodSmE5L-11" value="入帳1662(ERP 收款後 notify HH)" style="whiteSpace=wrap;rounded=1;fillColor=#999999;strokeColor=none;shadow=1;fontColor=#FFFFFF;fontStyle=0" vertex="1" parent="1">
          <mxGeometry x="1069.9999999999995" y="551.0000000000002" width="120" height="60" as="geometry" />
        </mxCell>
        <mxCell id="tMqXF5HZhTGsrodSmE5L-12" value="保證期到期1920" style="whiteSpace=wrap;rounded=1;fillColor=#999999;strokeColor=none;shadow=1;fontColor=#FFFFFF;fontStyle=0" vertex="1" parent="1">
          <mxGeometry x="1069.9999999999995" y="631.0000000000002" width="120" height="60" as="geometry" />
        </mxCell>
        <mxCell id="tMqXF5HZhTGsrodSmE5L-13" value="" style="edgeStyle=elbowEdgeStyle;elbow=horizontal;rounded=0;fontColor=#000000;endArrow=none;endFill=0;strokeWidth=8;strokeColor=#23445D;" edge="1" parent="1">
          <mxGeometry width="100" height="100" relative="1" as="geometry">
            <mxPoint x="1050" y="421" as="sourcePoint" />
            <mxPoint x="1070" y="421" as="targetPoint" />
            <Array as="points">
              <mxPoint x="1070" y="421.0000000000001" />
            </Array>
          </mxGeometry>
        </mxCell>
        <mxCell id="tMqXF5HZhTGsrodSmE5L-14" value="" style="edgeStyle=elbowEdgeStyle;elbow=horizontal;rounded=0;fontColor=#000000;endArrow=none;endFill=0;strokeWidth=8;strokeColor=#23445D;exitX=0.5;exitY=1;exitDx=0;exitDy=0;" edge="1" parent="1" source="tMqXF5HZhTGsrodSmE5L-8" target="tMqXF5HZhTGsrodSmE5L-12">
          <mxGeometry width="100" height="100" relative="1" as="geometry">
            <mxPoint x="1050" y="379" as="sourcePoint" />
            <mxPoint x="1050" y="671.0000000000001" as="targetPoint" />
            <Array as="points">
              <mxPoint x="1050" y="501.0000000000001" />
            </Array>
          </mxGeometry>
        </mxCell>
        <mxCell id="tMqXF5HZhTGsrodSmE5L-15" value="" style="edgeStyle=elbowEdgeStyle;elbow=horizontal;rounded=0;fontColor=#000000;endArrow=none;endFill=0;strokeWidth=8;strokeColor=#23445D;" edge="1" parent="1" target="tMqXF5HZhTGsrodSmE5L-11">
          <mxGeometry width="100" height="100" relative="1" as="geometry">
            <mxPoint x="1050" y="379" as="sourcePoint" />
            <mxPoint x="1049.9999999999998" y="591.0000000000001" as="targetPoint" />
            <Array as="points">
              <mxPoint x="1050" y="471.0000000000001" />
            </Array>
          </mxGeometry>
        </mxCell>
        <mxCell id="tMqXF5HZhTGsrodSmE5L-16" value="" style="edgeStyle=elbowEdgeStyle;elbow=vertical;rounded=0;fontColor=#000000;endArrow=none;endFill=0;strokeWidth=8;strokeColor=#23445D;" edge="1" parent="1" source="tMqXF5HZhTGsrodSmE5L-1" target="tMqXF5HZhTGsrodSmE5L-2">
          <mxGeometry width="100" height="100" relative="1" as="geometry">
            <mxPoint x="540" y="140" as="sourcePoint" />
            <mxPoint x="640" y="40" as="targetPoint" />
          </mxGeometry>
        </mxCell>
        <mxCell id="tMqXF5HZhTGsrodSmE5L-17" value="" style="edgeStyle=elbowEdgeStyle;elbow=vertical;rounded=0;fontColor=#000000;endArrow=none;endFill=0;strokeWidth=8;strokeColor=#23445D;" edge="1" parent="1" target="tMqXF5HZhTGsrodSmE5L-3">
          <mxGeometry width="100" height="100" relative="1" as="geometry">
            <mxPoint x="580" y="100" as="sourcePoint" />
            <mxPoint x="670" y="70" as="targetPoint" />
            <Array as="points">
              <mxPoint x="810" y="140" />
              <mxPoint x="1060" y="150" />
            </Array>
          </mxGeometry>
        </mxCell>
        <mxCell id="tMqXF5HZhTGsrodSmE5L-18" value="" style="edgeStyle=elbowEdgeStyle;elbow=horizontal;rounded=0;fontColor=#000000;endArrow=none;endFill=0;strokeWidth=8;strokeColor=#23445D;" edge="1" parent="1">
          <mxGeometry width="100" height="100" relative="1" as="geometry">
            <mxPoint x="1050" y="501" as="sourcePoint" />
            <mxPoint x="1070" y="501" as="targetPoint" />
            <Array as="points" />
          </mxGeometry>
        </mxCell>
        <mxCell id="tMqXF5HZhTGsrodSmE5L-19" value="Offer資料查看頁" style="whiteSpace=wrap;rounded=1;fillColor=#F2931E;strokeColor=none;shadow=1;fontColor=#FFFFFF;fontStyle=1;fontSize=14" vertex="1" parent="1">
          <mxGeometry x="510" y="179.9999999999998" width="140" height="60" as="geometry" />
        </mxCell>
        <mxCell id="tMqXF5HZhTGsrodSmE5L-20" value="front-end" style="whiteSpace=wrap;rounded=1;fillColor=#12AAB5;strokeColor=none;shadow=1;fontColor=#FFFFFF;" vertex="1" parent="1">
          <mxGeometry x="260" y="262" width="80" height="30" as="geometry" />
        </mxCell>
        <mxCell id="tMqXF5HZhTGsrodSmE5L-21" value="back-end" style="whiteSpace=wrap;rounded=1;fillColor=#12AAB5;strokeColor=none;shadow=1;fontColor=#FFFFFF;" vertex="1" parent="1">
          <mxGeometry x="260" y="470" width="80" height="28" as="geometry" />
        </mxCell>
        <mxCell id="tMqXF5HZhTGsrodSmE5L-22" value="發票作業API（重構）" style="whiteSpace=wrap;rounded=1;fillColor=#999999;strokeColor=none;shadow=1;fontColor=#FFFFFF;fontStyle=0;align=center;" vertex="1" parent="1">
          <mxGeometry x="310" y="515" width="180" height="38" as="geometry" />
        </mxCell>
        <mxCell id="tMqXF5HZhTGsrodSmE5L-23" value="" style="edgeStyle=elbowEdgeStyle;elbow=horizontal;rounded=0;fontColor=#000000;endArrow=none;endFill=0;strokeWidth=8;strokeColor=#23445D;exitX=1;exitY=0.5;exitDx=0;exitDy=0;entryX=0;entryY=0.5;entryDx=0;entryDy=0;" edge="1" parent="1" source="tMqXF5HZhTGsrodSmE5L-6" target="tMqXF5HZhTGsrodSmE5L-20">
          <mxGeometry width="100" height="100" relative="1" as="geometry">
            <mxPoint x="240" y="315" as="sourcePoint" />
            <mxPoint x="249.99999999999955" y="395" as="targetPoint" />
            <Array as="points">
              <mxPoint x="240" y="330" />
            </Array>
          </mxGeometry>
        </mxCell>
        <mxCell id="tMqXF5HZhTGsrodSmE5L-24" value="需顯上檔案名" style="whiteSpace=wrap;rounded=1;fillColor=#999999;strokeColor=none;shadow=1;fontColor=#FFFFFF;fontStyle=0" vertex="1" parent="1">
          <mxGeometry x="710" y="420" width="180" height="42" as="geometry" />
        </mxCell>
        <mxCell id="tMqXF5HZhTGsrodSmE5L-25" value="整併保證期到期明細表&#xa;" style="whiteSpace=wrap;rounded=1;fillColor=#999999;strokeColor=none;shadow=1;fontColor=#FFFFFF;fontStyle=0;align=center;" vertex="1" parent="1">
          <mxGeometry x="310" y="300" width="180" height="40" as="geometry" />
        </mxCell>
        <mxCell id="tMqXF5HZhTGsrodSmE5L-26" value="發票修改button移至資料後方,動作為另開頁面" style="whiteSpace=wrap;rounded=1;fillColor=#999999;strokeColor=none;shadow=1;fontColor=#FFFFFF;fontStyle=0;align=center;" vertex="1" parent="1">
          <mxGeometry x="310" y="360" width="180" height="40" as="geometry" />
        </mxCell>
        <mxCell id="tMqXF5HZhTGsrodSmE5L-27" value="原[offer內容]，改由案狀態連結進入，另開頁面" style="whiteSpace=wrap;rounded=1;fillColor=#999999;strokeColor=none;shadow=1;fontColor=#FFFFFF;fontStyle=0;align=center;" vertex="1" parent="1">
          <mxGeometry x="310" y="420" width="180" height="40" as="geometry" />
        </mxCell>
        <mxCell id="tMqXF5HZhTGsrodSmE5L-28" value="" style="edgeStyle=elbowEdgeStyle;elbow=horizontal;rounded=0;fontColor=#000000;endArrow=none;endFill=0;strokeWidth=8;strokeColor=#23445D;entryX=0;entryY=0.5;entryDx=0;entryDy=0;align=center;" edge="1" parent="1" target="tMqXF5HZhTGsrodSmE5L-27">
          <mxGeometry width="100" height="100" relative="1" as="geometry">
            <mxPoint x="280" y="292" as="sourcePoint" />
            <mxPoint x="300" y="440" as="targetPoint" />
            <Array as="points">
              <mxPoint x="280" y="370" />
            </Array>
          </mxGeometry>
        </mxCell>
        <mxCell id="tMqXF5HZhTGsrodSmE5L-29" value="" style="edgeStyle=elbowEdgeStyle;elbow=horizontal;rounded=0;fontColor=#000000;endArrow=none;endFill=0;strokeWidth=8;strokeColor=#23445D;entryX=0;entryY=0.5;entryDx=0;entryDy=0;align=center;" edge="1" parent="1" target="tMqXF5HZhTGsrodSmE5L-26">
          <mxGeometry width="100" height="100" relative="1" as="geometry">
            <mxPoint x="280" y="290" as="sourcePoint" />
            <mxPoint x="320" y="450" as="targetPoint" />
            <Array as="points">
              <mxPoint x="280" y="370" />
            </Array>
          </mxGeometry>
        </mxCell>
        <mxCell id="tMqXF5HZhTGsrodSmE5L-30" value="發票修改API（重構）" style="whiteSpace=wrap;rounded=1;fillColor=#999999;strokeColor=none;shadow=1;fontColor=#FFFFFF;fontStyle=0;align=center;" vertex="1" parent="1">
          <mxGeometry x="330" y="1590" width="180" height="40" as="geometry" />
        </mxCell>
        <mxCell id="tMqXF5HZhTGsrodSmE5L-31" value="" style="edgeStyle=elbowEdgeStyle;elbow=horizontal;rounded=0;fontColor=#000000;endArrow=none;endFill=0;strokeWidth=8;strokeColor=#23445D;entryX=0;entryY=0.5;entryDx=0;entryDy=0;align=center;exitX=0.25;exitY=1;exitDx=0;exitDy=0;" edge="1" parent="1" source="tMqXF5HZhTGsrodSmE5L-21">
          <mxGeometry width="100" height="100" relative="1" as="geometry">
            <mxPoint x="280" y="513" as="sourcePoint" />
            <mxPoint x="310" y="543" as="targetPoint" />
            <Array as="points">
              <mxPoint x="280" y="603" />
            </Array>
          </mxGeometry>
        </mxCell>
        <mxCell id="tMqXF5HZhTGsrodSmE5L-32" value="不拋轉設定改為開啟lightbox寫入" style="whiteSpace=wrap;rounded=1;fillColor=#12AAB5;strokeColor=none;shadow=1;fontColor=#FFFFFF;" vertex="1" parent="1">
          <mxGeometry x="92.18" y="820" width="135" height="60" as="geometry" />
        </mxCell>
        <mxCell id="tMqXF5HZhTGsrodSmE5L-33" value="" style="edgeStyle=elbowEdgeStyle;elbow=vertical;rounded=0;fontColor=#000000;endArrow=none;endFill=0;strokeWidth=8;strokeColor=#23445D;" edge="1" parent="1">
          <mxGeometry width="100" height="100" relative="1" as="geometry">
            <mxPoint x="159.5" y="359.9999999999998" as="sourcePoint" />
            <mxPoint x="159.5" y="420" as="targetPoint" />
            <Array as="points">
              <mxPoint x="160" y="820" />
            </Array>
          </mxGeometry>
        </mxCell>
        <mxCell id="tMqXF5HZhTGsrodSmE5L-34" value="front-end" style="whiteSpace=wrap;rounded=1;fillColor=#12AAB5;strokeColor=none;shadow=1;fontColor=#FFFFFF;" vertex="1" parent="1">
          <mxGeometry x="267.18" y="780" width="80" height="30" as="geometry" />
        </mxCell>
        <mxCell id="tMqXF5HZhTGsrodSmE5L-35" value="back-end" style="whiteSpace=wrap;rounded=1;fillColor=#12AAB5;strokeColor=none;shadow=1;fontColor=#FFFFFF;" vertex="1" parent="1">
          <mxGeometry x="267.18" y="870" width="80" height="28" as="geometry" />
        </mxCell>
        <mxCell id="tMqXF5HZhTGsrodSmE5L-36" value="查詢API（重構）" style="whiteSpace=wrap;rounded=1;fillColor=#999999;strokeColor=none;shadow=1;fontColor=#FFFFFF;fontStyle=0;align=center;" vertex="1" parent="1">
          <mxGeometry x="310" y="571" width="180" height="38" as="geometry" />
        </mxCell>
        <mxCell id="tMqXF5HZhTGsrodSmE5L-37" value="" style="edgeStyle=elbowEdgeStyle;elbow=horizontal;rounded=0;fontColor=#000000;endArrow=none;endFill=0;strokeWidth=8;strokeColor=#23445D;exitX=1;exitY=0.5;exitDx=0;exitDy=0;entryX=0;entryY=0.5;entryDx=0;entryDy=0;" edge="1" parent="1" target="tMqXF5HZhTGsrodSmE5L-34">
          <mxGeometry width="100" height="100" relative="1" as="geometry">
            <mxPoint x="227.18000000000006" y="848" as="sourcePoint" />
            <mxPoint x="257.17999999999955" y="913" as="targetPoint" />
            <Array as="points">
              <mxPoint x="247.18" y="878" />
            </Array>
          </mxGeometry>
        </mxCell>
        <mxCell id="tMqXF5HZhTGsrodSmE5L-38" value="" style="edgeStyle=elbowEdgeStyle;elbow=horizontal;rounded=0;fontColor=#000000;endArrow=none;endFill=0;strokeWidth=8;strokeColor=#23445D;exitX=1;exitY=0.5;exitDx=0;exitDy=0;entryX=0;entryY=0.5;entryDx=0;entryDy=0;" edge="1" parent="1" target="tMqXF5HZhTGsrodSmE5L-35">
          <mxGeometry width="100" height="100" relative="1" as="geometry">
            <mxPoint x="227.18000000000006" y="846" as="sourcePoint" />
            <mxPoint x="267.18" y="823" as="targetPoint" />
            <Array as="points">
              <mxPoint x="247.18" y="876" />
            </Array>
          </mxGeometry>
        </mxCell>
        <mxCell id="tMqXF5HZhTGsrodSmE5L-39" value="lightbox顯示" style="whiteSpace=wrap;rounded=1;fillColor=#999999;strokeColor=none;shadow=1;fontColor=#FFFFFF;fontStyle=0;align=center;" vertex="1" parent="1">
          <mxGeometry x="317.18" y="818" width="180" height="40" as="geometry" />
        </mxCell>
        <mxCell id="tMqXF5HZhTGsrodSmE5L-40" value="" style="edgeStyle=elbowEdgeStyle;elbow=horizontal;rounded=0;fontColor=#000000;endArrow=none;endFill=0;strokeWidth=8;strokeColor=#23445D;entryX=0;entryY=0.5;entryDx=0;entryDy=0;align=center;" edge="1" parent="1" target="tMqXF5HZhTGsrodSmE5L-39">
          <mxGeometry width="100" height="100" relative="1" as="geometry">
            <mxPoint x="287.18000000000006" y="808" as="sourcePoint" />
            <mxPoint x="337.18" y="978" as="targetPoint" />
            <Array as="points">
              <mxPoint x="287.18" y="898" />
            </Array>
          </mxGeometry>
        </mxCell>
        <mxCell id="tMqXF5HZhTGsrodSmE5L-41" value="" style="edgeStyle=elbowEdgeStyle;elbow=horizontal;rounded=0;fontColor=#000000;endArrow=none;endFill=0;strokeWidth=8;strokeColor=#23445D;entryX=0;entryY=0.5;entryDx=0;entryDy=0;align=center;" edge="1" parent="1" target="tMqXF5HZhTGsrodSmE5L-36">
          <mxGeometry width="100" height="100" relative="1" as="geometry">
            <mxPoint x="280" y="540" as="sourcePoint" />
            <mxPoint x="310" y="924" as="targetPoint" />
            <Array as="points">
              <mxPoint x="280" y="891" />
            </Array>
          </mxGeometry>
        </mxCell>
        <mxCell id="tMqXF5HZhTGsrodSmE5L-42" value="front-end" style="whiteSpace=wrap;rounded=1;fillColor=#12AAB5;strokeColor=none;shadow=1;fontColor=#FFFFFF;" vertex="1" parent="1">
          <mxGeometry x="277.81" y="979" width="80" height="30" as="geometry" />
        </mxCell>
        <mxCell id="tMqXF5HZhTGsrodSmE5L-43" value="back-end" style="whiteSpace=wrap;rounded=1;fillColor=#12AAB5;strokeColor=none;shadow=1;fontColor=#FFFFFF;" vertex="1" parent="1">
          <mxGeometry x="277.81" y="1159" width="80" height="28" as="geometry" />
        </mxCell>
        <mxCell id="tMqXF5HZhTGsrodSmE5L-44" value="入帳API（重構）" style="whiteSpace=wrap;rounded=1;fillColor=#999999;strokeColor=none;shadow=1;fontColor=#FFFFFF;fontStyle=0;align=center;" vertex="1" parent="1">
          <mxGeometry x="327.81" y="1204" width="180" height="38" as="geometry" />
        </mxCell>
        <mxCell id="tMqXF5HZhTGsrodSmE5L-45" value="" style="edgeStyle=elbowEdgeStyle;elbow=horizontal;rounded=0;fontColor=#000000;endArrow=none;endFill=0;strokeWidth=8;strokeColor=#23445D;exitX=1;exitY=0.5;exitDx=0;exitDy=0;entryX=0;entryY=0.5;entryDx=0;entryDy=0;" edge="1" parent="1" target="tMqXF5HZhTGsrodSmE5L-42">
          <mxGeometry width="100" height="100" relative="1" as="geometry">
            <mxPoint x="237.80999999999995" y="1047" as="sourcePoint" />
            <mxPoint x="267.80999999999955" y="1112" as="targetPoint" />
            <Array as="points">
              <mxPoint x="257.81" y="1077" />
            </Array>
          </mxGeometry>
        </mxCell>
        <mxCell id="tMqXF5HZhTGsrodSmE5L-46" value="" style="edgeStyle=elbowEdgeStyle;elbow=horizontal;rounded=0;fontColor=#000000;endArrow=none;endFill=0;strokeWidth=8;strokeColor=#23445D;exitX=1;exitY=0.5;exitDx=0;exitDy=0;entryX=0;entryY=0.5;entryDx=0;entryDy=0;" edge="1" parent="1" target="tMqXF5HZhTGsrodSmE5L-43">
          <mxGeometry width="100" height="100" relative="1" as="geometry">
            <mxPoint x="237.80999999999995" y="1045" as="sourcePoint" />
            <mxPoint x="277.81" y="1022" as="targetPoint" />
            <Array as="points">
              <mxPoint x="257.81" y="1075" />
            </Array>
          </mxGeometry>
        </mxCell>
        <mxCell id="tMqXF5HZhTGsrodSmE5L-47" value="前端網頁重構" style="whiteSpace=wrap;rounded=1;fillColor=#999999;strokeColor=none;shadow=1;fontColor=#FFFFFF;fontStyle=0;align=center;" vertex="1" parent="1">
          <mxGeometry x="327.81" y="1017" width="180" height="40" as="geometry" />
        </mxCell>
        <mxCell id="tMqXF5HZhTGsrodSmE5L-48" value="" style="edgeStyle=elbowEdgeStyle;elbow=horizontal;rounded=0;fontColor=#000000;endArrow=none;endFill=0;strokeWidth=8;strokeColor=#23445D;entryX=0;entryY=0.5;entryDx=0;entryDy=0;align=center;" edge="1" parent="1" target="tMqXF5HZhTGsrodSmE5L-47">
          <mxGeometry width="100" height="100" relative="1" as="geometry">
            <mxPoint x="297.80999999999995" y="1007" as="sourcePoint" />
            <mxPoint x="347.81" y="1177" as="targetPoint" />
            <Array as="points">
              <mxPoint x="297.81" y="1097" />
            </Array>
          </mxGeometry>
        </mxCell>
        <mxCell id="tMqXF5HZhTGsrodSmE5L-49" value="" style="edgeStyle=elbowEdgeStyle;elbow=horizontal;rounded=0;fontColor=#000000;endArrow=none;endFill=0;strokeWidth=8;strokeColor=#23445D;entryX=0;entryY=0.5;entryDx=0;entryDy=0;align=center;exitX=0.25;exitY=1;exitDx=0;exitDy=0;" edge="1" parent="1" source="tMqXF5HZhTGsrodSmE5L-43">
          <mxGeometry width="100" height="100" relative="1" as="geometry">
            <mxPoint x="297.81" y="1202" as="sourcePoint" />
            <mxPoint x="327.80999999999995" y="1232" as="targetPoint" />
            <Array as="points">
              <mxPoint x="297.81" y="1292" />
            </Array>
          </mxGeometry>
        </mxCell>
        <mxCell id="tMqXF5HZhTGsrodSmE5L-50" value="拋轉訂單API（重構）" style="whiteSpace=wrap;rounded=1;fillColor=#999999;strokeColor=none;shadow=1;fontColor=#FFFFFF;fontStyle=0;align=center;" vertex="1" parent="1">
          <mxGeometry x="310" y="620" width="180" height="38" as="geometry" />
        </mxCell>
        <mxCell id="tMqXF5HZhTGsrodSmE5L-51" value="不拋轉訂單API（重構）" style="whiteSpace=wrap;rounded=1;fillColor=#999999;strokeColor=none;shadow=1;fontColor=#FFFFFF;fontStyle=0;align=center;" vertex="1" parent="1">
          <mxGeometry x="317.18" y="914" width="180" height="38" as="geometry" />
        </mxCell>
        <mxCell id="tMqXF5HZhTGsrodSmE5L-52" value="" style="edgeStyle=elbowEdgeStyle;elbow=horizontal;rounded=0;fontColor=#000000;endArrow=none;endFill=0;strokeWidth=8;strokeColor=#23445D;entryX=0;entryY=0.5;entryDx=0;entryDy=0;align=center;" edge="1" parent="1">
          <mxGeometry width="100" height="100" relative="1" as="geometry">
            <mxPoint x="287.18000000000006" y="899" as="sourcePoint" />
            <mxPoint x="317.18000000000006" y="938.0000000000002" as="targetPoint" />
            <Array as="points">
              <mxPoint x="287.18" y="1030" />
            </Array>
          </mxGeometry>
        </mxCell>
        <mxCell id="tMqXF5HZhTGsrodSmE5L-53" value="重開發票API（重構）" style="whiteSpace=wrap;rounded=1;fillColor=#999999;strokeColor=none;shadow=1;fontColor=#FFFFFF;fontStyle=0;align=center;" vertex="1" parent="1">
          <mxGeometry x="327.81" y="1259" width="180" height="38" as="geometry" />
        </mxCell>
        <mxCell id="tMqXF5HZhTGsrodSmE5L-54" value="" style="edgeStyle=elbowEdgeStyle;elbow=horizontal;rounded=0;fontColor=#000000;endArrow=none;endFill=0;strokeWidth=8;strokeColor=#23445D;entryX=0;entryY=0.5;entryDx=0;entryDy=0;align=center;exitX=0.25;exitY=1;exitDx=0;exitDy=0;" edge="1" parent="1">
          <mxGeometry width="100" height="100" relative="1" as="geometry">
            <mxPoint x="297.80999999999995" y="1229" as="sourcePoint" />
            <mxPoint x="327.80999999999995" y="1274" as="targetPoint" />
            <Array as="points">
              <mxPoint x="297.81" y="1334" />
            </Array>
          </mxGeometry>
        </mxCell>
        <mxCell id="tMqXF5HZhTGsrodSmE5L-55" value="儲存API（重構）" style="whiteSpace=wrap;rounded=1;fillColor=#999999;strokeColor=none;shadow=1;fontColor=#FFFFFF;fontStyle=0;align=center;" vertex="1" parent="1">
          <mxGeometry x="327.81" y="1309" width="180" height="38" as="geometry" />
        </mxCell>
        <mxCell id="tMqXF5HZhTGsrodSmE5L-56" value="" style="edgeStyle=elbowEdgeStyle;elbow=horizontal;rounded=0;fontColor=#000000;endArrow=none;endFill=0;strokeWidth=8;strokeColor=#23445D;entryX=0;entryY=0.5;entryDx=0;entryDy=0;align=center;" edge="1" parent="1">
          <mxGeometry width="100" height="100" relative="1" as="geometry">
            <mxPoint x="298.30999999999995" y="1259" as="sourcePoint" />
            <mxPoint x="327.80999999999995" y="1324" as="targetPoint" />
            <Array as="points">
              <mxPoint x="297.81" y="1384" />
            </Array>
          </mxGeometry>
        </mxCell>
        <mxCell id="tMqXF5HZhTGsrodSmE5L-57" value="" style="edgeStyle=elbowEdgeStyle;elbow=horizontal;rounded=0;fontColor=#000000;endArrow=none;endFill=0;strokeWidth=8;strokeColor=#23445D;entryX=0;entryY=0.5;entryDx=0;entryDy=0;align=center;" edge="1" parent="1">
          <mxGeometry width="100" height="100" relative="1" as="geometry">
            <mxPoint x="280" y="578" as="sourcePoint" />
            <mxPoint x="310" y="638.0000000000002" as="targetPoint" />
            <Array as="points">
              <mxPoint x="280" y="730" />
            </Array>
          </mxGeometry>
        </mxCell>
        <mxCell id="tMqXF5HZhTGsrodSmE5L-58" value="" style="edgeStyle=elbowEdgeStyle;elbow=vertical;rounded=0;fontColor=#000000;endArrow=none;endFill=0;strokeWidth=8;strokeColor=#23445D;entryX=0.5;entryY=0;entryDx=0;entryDy=0;" edge="1" parent="1" target="tMqXF5HZhTGsrodSmE5L-19">
          <mxGeometry width="100" height="100" relative="1" as="geometry">
            <mxPoint x="580" y="130" as="sourcePoint" />
            <mxPoint x="170" y="189.99999999999977" as="targetPoint" />
          </mxGeometry>
        </mxCell>
        <mxCell id="tMqXF5HZhTGsrodSmE5L-59" value="front-end" style="whiteSpace=wrap;rounded=1;fillColor=#12AAB5;strokeColor=none;shadow=1;fontColor=#FFFFFF;" vertex="1" parent="1">
          <mxGeometry x="660" y="255" width="80" height="30" as="geometry" />
        </mxCell>
        <mxCell id="tMqXF5HZhTGsrodSmE5L-60" value="back-end" style="whiteSpace=wrap;rounded=1;fillColor=#12AAB5;strokeColor=none;shadow=1;fontColor=#FFFFFF;" vertex="1" parent="1">
          <mxGeometry x="660" y="491" width="80" height="28" as="geometry" />
        </mxCell>
        <mxCell id="tMqXF5HZhTGsrodSmE5L-61" value="get offer data API（重構）" style="whiteSpace=wrap;rounded=1;fillColor=#999999;strokeColor=none;shadow=1;fontColor=#FFFFFF;fontStyle=0;align=center;" vertex="1" parent="1">
          <mxGeometry x="710" y="533" width="180" height="38" as="geometry" />
        </mxCell>
        <mxCell id="tMqXF5HZhTGsrodSmE5L-62" value="" style="edgeStyle=elbowEdgeStyle;elbow=horizontal;rounded=0;fontColor=#000000;endArrow=none;endFill=0;strokeWidth=8;strokeColor=#23445D;exitX=0.5;exitY=1;exitDx=0;exitDy=0;entryX=0;entryY=0.5;entryDx=0;entryDy=0;" edge="1" parent="1" source="tMqXF5HZhTGsrodSmE5L-19" target="tMqXF5HZhTGsrodSmE5L-60">
          <mxGeometry width="100" height="100" relative="1" as="geometry">
            <mxPoint x="620" y="321" as="sourcePoint" />
            <mxPoint x="660" y="298" as="targetPoint" />
            <Array as="points">
              <mxPoint x="580" y="300" />
              <mxPoint x="590" y="300" />
              <mxPoint x="640" y="351" />
            </Array>
          </mxGeometry>
        </mxCell>
        <mxCell id="tMqXF5HZhTGsrodSmE5L-63" value="頁面重構&#xa;ps.點案件編號連到案件360&#xa;點付款通知連到新URL" style="whiteSpace=wrap;rounded=1;fillColor=#999999;strokeColor=none;shadow=1;fontColor=#FFFFFF;fontStyle=0;align=center;" vertex="1" parent="1">
          <mxGeometry x="710" y="293" width="180" height="40" as="geometry" />
        </mxCell>
        <mxCell id="tMqXF5HZhTGsrodSmE5L-64" value="" style="edgeStyle=elbowEdgeStyle;elbow=horizontal;rounded=0;fontColor=#000000;endArrow=none;endFill=0;strokeWidth=8;strokeColor=#23445D;entryX=0;entryY=0.5;entryDx=0;entryDy=0;align=center;" edge="1" parent="1" target="tMqXF5HZhTGsrodSmE5L-63">
          <mxGeometry width="100" height="100" relative="1" as="geometry">
            <mxPoint x="680" y="283" as="sourcePoint" />
            <mxPoint x="730" y="453" as="targetPoint" />
            <Array as="points">
              <mxPoint x="680" y="373" />
            </Array>
          </mxGeometry>
        </mxCell>
        <mxCell id="tMqXF5HZhTGsrodSmE5L-65" value="檔案上傳API（重構）" style="whiteSpace=wrap;rounded=1;fillColor=#999999;strokeColor=none;shadow=1;fontColor=#FFFFFF;fontStyle=0;align=center;" vertex="1" parent="1">
          <mxGeometry x="710" y="591" width="180" height="40" as="geometry" />
        </mxCell>
        <mxCell id="tMqXF5HZhTGsrodSmE5L-66" value="" style="edgeStyle=elbowEdgeStyle;elbow=horizontal;rounded=0;fontColor=#000000;endArrow=none;endFill=0;strokeWidth=8;strokeColor=#23445D;entryX=0;entryY=0.5;entryDx=0;entryDy=0;align=center;" edge="1" parent="1">
          <mxGeometry width="100" height="100" relative="1" as="geometry">
            <mxPoint x="680" y="517" as="sourcePoint" />
            <mxPoint x="710" y="547" as="targetPoint" />
            <Array as="points">
              <mxPoint x="680" y="607" />
            </Array>
          </mxGeometry>
        </mxCell>
        <mxCell id="tMqXF5HZhTGsrodSmE5L-67" value="" style="edgeStyle=elbowEdgeStyle;elbow=horizontal;rounded=0;fontColor=#000000;endArrow=none;endFill=0;strokeWidth=8;strokeColor=#23445D;entryX=0;entryY=0.5;entryDx=0;entryDy=0;align=center;exitX=0.25;exitY=1;exitDx=0;exitDy=0;" edge="1" parent="1" source="tMqXF5HZhTGsrodSmE5L-60">
          <mxGeometry width="100" height="100" relative="1" as="geometry">
            <mxPoint x="680" y="572" as="sourcePoint" />
            <mxPoint x="710" y="602" as="targetPoint" />
            <Array as="points">
              <mxPoint x="680" y="882" />
            </Array>
          </mxGeometry>
        </mxCell>
        <mxCell id="tMqXF5HZhTGsrodSmE5L-68" value="" style="edgeStyle=elbowEdgeStyle;elbow=horizontal;rounded=0;fontColor=#000000;endArrow=none;endFill=0;strokeWidth=8;strokeColor=#23445D;entryX=0;entryY=0.5;entryDx=0;entryDy=0;" edge="1" parent="1" target="tMqXF5HZhTGsrodSmE5L-59">
          <mxGeometry width="100" height="100" relative="1" as="geometry">
            <mxPoint x="580" y="270" as="sourcePoint" />
            <mxPoint x="670" y="487.0000000000002" as="targetPoint" />
            <Array as="points">
              <mxPoint x="590" y="310" />
              <mxPoint x="600" y="310" />
              <mxPoint x="650" y="361" />
            </Array>
          </mxGeometry>
        </mxCell>
        <mxCell id="tMqXF5HZhTGsrodSmE5L-69" value="" style="edgeStyle=elbowEdgeStyle;elbow=horizontal;rounded=0;fontColor=#000000;endArrow=none;endFill=0;strokeWidth=8;strokeColor=#23445D;align=center;entryX=0;entryY=0.5;entryDx=0;entryDy=0;" edge="1" parent="1" target="tMqXF5HZhTGsrodSmE5L-24">
          <mxGeometry width="100" height="100" relative="1" as="geometry">
            <mxPoint x="680" y="310" as="sourcePoint" />
            <mxPoint x="700" y="440" as="targetPoint" />
            <Array as="points">
              <mxPoint x="680" y="437" />
            </Array>
          </mxGeometry>
        </mxCell>
        <mxCell id="tMqXF5HZhTGsrodSmE5L-70" value="點案件編號連到案件360" style="whiteSpace=wrap;rounded=1;fillColor=#999999;strokeColor=none;shadow=1;fontColor=#FFFFFF;fontStyle=0;align=center;" vertex="1" parent="1">
          <mxGeometry x="327.81" y="1079" width="180" height="40" as="geometry" />
        </mxCell>
        <mxCell id="tMqXF5HZhTGsrodSmE5L-71" value="" style="edgeStyle=elbowEdgeStyle;elbow=horizontal;rounded=0;fontColor=#000000;endArrow=none;endFill=0;strokeWidth=8;strokeColor=#23445D;align=center;" edge="1" parent="1">
          <mxGeometry width="100" height="100" relative="1" as="geometry">
            <mxPoint x="299.30999999999995" y="1039" as="sourcePoint" />
            <mxPoint x="325.30999999999995" y="1099" as="targetPoint" />
            <Array as="points">
              <mxPoint x="299.06" y="1057" />
            </Array>
          </mxGeometry>
        </mxCell>
        <mxCell id="tMqXF5HZhTGsrodSmE5L-72" value="發票資料編輯" style="whiteSpace=wrap;rounded=1;strokeColor=none;shadow=1;fontColor=#FFFFFF;fontStyle=1;fontSize=14;fillColor=#12AAB5;" vertex="1" parent="1">
          <mxGeometry x="100.00000000000001" y="1407" width="141.88" height="60" as="geometry" />
        </mxCell>
        <mxCell id="tMqXF5HZhTGsrodSmE5L-73" value="front-end" style="whiteSpace=wrap;rounded=1;fillColor=#12AAB5;strokeColor=none;shadow=1;fontColor=#FFFFFF;" vertex="1" parent="1">
          <mxGeometry x="277.81" y="1369" width="80" height="30" as="geometry" />
        </mxCell>
        <mxCell id="tMqXF5HZhTGsrodSmE5L-74" value="back-end" style="whiteSpace=wrap;rounded=1;fillColor=#12AAB5;strokeColor=none;shadow=1;fontColor=#FFFFFF;" vertex="1" parent="1">
          <mxGeometry x="277.81" y="1549" width="80" height="28" as="geometry" />
        </mxCell>
        <mxCell id="tMqXF5HZhTGsrodSmE5L-75" value="" style="edgeStyle=elbowEdgeStyle;elbow=horizontal;rounded=0;fontColor=#000000;endArrow=none;endFill=0;strokeWidth=8;strokeColor=#23445D;exitX=1;exitY=0.5;exitDx=0;exitDy=0;entryX=0;entryY=0.5;entryDx=0;entryDy=0;" edge="1" parent="1" target="tMqXF5HZhTGsrodSmE5L-73">
          <mxGeometry width="100" height="100" relative="1" as="geometry">
            <mxPoint x="237.81000000000017" y="1437" as="sourcePoint" />
            <mxPoint x="267.80999999999955" y="1502" as="targetPoint" />
            <Array as="points">
              <mxPoint x="257.81" y="1467" />
            </Array>
          </mxGeometry>
        </mxCell>
        <mxCell id="tMqXF5HZhTGsrodSmE5L-76" value="" style="edgeStyle=elbowEdgeStyle;elbow=horizontal;rounded=0;fontColor=#000000;endArrow=none;endFill=0;strokeWidth=8;strokeColor=#23445D;exitX=1;exitY=0.5;exitDx=0;exitDy=0;entryX=0;entryY=0.5;entryDx=0;entryDy=0;" edge="1" parent="1" target="tMqXF5HZhTGsrodSmE5L-74">
          <mxGeometry width="100" height="100" relative="1" as="geometry">
            <mxPoint x="237.81000000000017" y="1435" as="sourcePoint" />
            <mxPoint x="277.81" y="1412" as="targetPoint" />
            <Array as="points">
              <mxPoint x="257.81" y="1465" />
            </Array>
          </mxGeometry>
        </mxCell>
        <mxCell id="tMqXF5HZhTGsrodSmE5L-77" value="前端網頁重構" style="whiteSpace=wrap;rounded=1;fillColor=#999999;strokeColor=none;shadow=1;fontColor=#FFFFFF;fontStyle=0;align=center;" vertex="1" parent="1">
          <mxGeometry x="327.81" y="1407" width="180" height="40" as="geometry" />
        </mxCell>
        <mxCell id="tMqXF5HZhTGsrodSmE5L-78" value="" style="edgeStyle=elbowEdgeStyle;elbow=horizontal;rounded=0;fontColor=#000000;endArrow=none;endFill=0;strokeWidth=8;strokeColor=#23445D;entryX=0;entryY=0.5;entryDx=0;entryDy=0;align=center;" edge="1" parent="1" target="tMqXF5HZhTGsrodSmE5L-77">
          <mxGeometry width="100" height="100" relative="1" as="geometry">
            <mxPoint x="297.8100000000002" y="1397" as="sourcePoint" />
            <mxPoint x="347.81" y="1567" as="targetPoint" />
            <Array as="points">
              <mxPoint x="297.81" y="1487" />
            </Array>
          </mxGeometry>
        </mxCell>
        <mxCell id="tMqXF5HZhTGsrodSmE5L-79" value="" style="edgeStyle=elbowEdgeStyle;elbow=horizontal;rounded=0;fontColor=#000000;endArrow=none;endFill=0;strokeWidth=8;strokeColor=#23445D;align=center;exitX=0.25;exitY=1;exitDx=0;exitDy=0;" edge="1" parent="1" source="tMqXF5HZhTGsrodSmE5L-74">
          <mxGeometry width="100" height="100" relative="1" as="geometry">
            <mxPoint x="297.81" y="1592" as="sourcePoint" />
            <mxPoint x="298" y="1622" as="targetPoint" />
            <Array as="points">
              <mxPoint x="297.81" y="1682" />
            </Array>
          </mxGeometry>
        </mxCell>
        <mxCell id="tMqXF5HZhTGsrodSmE5L-80" value="案件狀態及發票狀態變更相關API（重構）" style="whiteSpace=wrap;rounded=1;fillColor=#999999;strokeColor=none;shadow=1;fontColor=#FFFFFF;fontStyle=0;align=center;" vertex="1" parent="1">
          <mxGeometry x="310" y="668" width="180" height="38" as="geometry" />
        </mxCell>
        <mxCell id="tMqXF5HZhTGsrodSmE5L-81" value="" style="edgeStyle=elbowEdgeStyle;elbow=horizontal;rounded=0;fontColor=#000000;endArrow=none;endFill=0;strokeWidth=8;strokeColor=#23445D;entryX=0;entryY=0.5;entryDx=0;entryDy=0;align=center;exitX=0.25;exitY=1;exitDx=0;exitDy=0;" edge="1" parent="1">
          <mxGeometry width="100" height="100" relative="1" as="geometry">
            <mxPoint x="280" y="638" as="sourcePoint" />
            <mxPoint x="310" y="683" as="targetPoint" />
            <Array as="points">
              <mxPoint x="280" y="743" />
            </Array>
          </mxGeometry>
        </mxCell>
        <mxCell id="tMqXF5HZhTGsrodSmE5L-82" value="儲存API（重構）" style="whiteSpace=wrap;rounded=1;fillColor=#999999;strokeColor=none;shadow=1;fontColor=#FFFFFF;fontStyle=0;align=center;" vertex="1" parent="1">
          <mxGeometry x="330" y="1650" width="180" height="38" as="geometry" />
        </mxCell>
        <mxCell id="tMqXF5HZhTGsrodSmE5L-83" value="" style="edgeStyle=elbowEdgeStyle;elbow=horizontal;rounded=0;fontColor=#000000;endArrow=none;endFill=0;strokeWidth=8;strokeColor=#23445D;entryX=0;entryY=0.75;entryDx=0;entryDy=0;align=center;" edge="1" parent="1" target="tMqXF5HZhTGsrodSmE5L-82">
          <mxGeometry width="100" height="100" relative="1" as="geometry">
            <mxPoint x="298" y="1610" as="sourcePoint" />
            <mxPoint x="327.8100000000001" y="1714" as="targetPoint" />
            <Array as="points">
              <mxPoint x="297.81" y="1774" />
            </Array>
          </mxGeometry>
        </mxCell>
        <mxCell id="tMqXF5HZhTGsrodSmE5L-84" value="點案件編號連到案件360" style="whiteSpace=wrap;rounded=1;fillColor=#999999;strokeColor=none;shadow=1;fontColor=#FFFFFF;fontStyle=0;align=center;" vertex="1" parent="1">
          <mxGeometry x="327.81" y="1469" width="180" height="40" as="geometry" />
        </mxCell>
        <mxCell id="tMqXF5HZhTGsrodSmE5L-85" value="" style="edgeStyle=elbowEdgeStyle;elbow=horizontal;rounded=0;fontColor=#000000;endArrow=none;endFill=0;strokeWidth=8;strokeColor=#23445D;align=center;" edge="1" parent="1">
          <mxGeometry width="100" height="100" relative="1" as="geometry">
            <mxPoint x="301.8100000000002" y="1428" as="sourcePoint" />
            <mxPoint x="327.8100000000002" y="1488" as="targetPoint" />
            <Array as="points">
              <mxPoint x="300" y="1460" />
            </Array>
          </mxGeometry>
        </mxCell>
        <mxCell id="tMqXF5HZhTGsrodSmE5L-86" value="" style="edgeStyle=elbowEdgeStyle;elbow=vertical;rounded=0;fontColor=#000000;endArrow=none;endFill=0;strokeWidth=8;strokeColor=#23445D;entryX=0.5;entryY=0;entryDx=0;entryDy=0;" edge="1" parent="1" target="tMqXF5HZhTGsrodSmE5L-5">
          <mxGeometry width="100" height="100" relative="1" as="geometry">
            <mxPoint x="163" y="880" as="sourcePoint" />
            <mxPoint x="161.18" y="989" as="targetPoint" />
            <Array as="points">
              <mxPoint x="163.18" y="979" />
            </Array>
          </mxGeometry>
        </mxCell>
        <mxCell id="tMqXF5HZhTGsrodSmE5L-87" value="" style="edgeStyle=elbowEdgeStyle;elbow=vertical;rounded=0;fontColor=#000000;endArrow=none;endFill=0;strokeWidth=8;strokeColor=#23445D;entryX=0.5;entryY=0;entryDx=0;entryDy=0;" edge="1" parent="1" target="tMqXF5HZhTGsrodSmE5L-72">
          <mxGeometry width="100" height="100" relative="1" as="geometry">
            <mxPoint x="171" y="1059" as="sourcePoint" />
            <mxPoint x="166.18" y="1399" as="targetPoint" />
            <Array as="points">
              <mxPoint x="171" y="1110" />
              <mxPoint x="171" y="1170" />
              <mxPoint x="171" y="1280" />
              <mxPoint x="162.18" y="1319" />
            </Array>
          </mxGeometry>
        </mxCell>
        <mxCell id="tMqXF5HZhTGsrodSmE5L-88" value="" style="edgeStyle=elbowEdgeStyle;elbow=horizontal;rounded=0;fontColor=#000000;endArrow=none;endFill=0;strokeWidth=8;strokeColor=#23445D;align=center;" edge="1" parent="1">
          <mxGeometry width="100" height="100" relative="1" as="geometry">
            <mxPoint x="1050" y="240" as="sourcePoint" />
            <mxPoint x="1050" y="260" as="targetPoint" />
            <Array as="points" />
          </mxGeometry>
        </mxCell>
        <mxCell id="tMqXF5HZhTGsrodSmE5L-89" value="檔案上傳" style="whiteSpace=wrap;rounded=1;fillColor=#999999;strokeColor=none;shadow=1;fontColor=#FFFFFF;fontStyle=0" vertex="1" parent="1">
          <mxGeometry x="710" y="358" width="180" height="42" as="geometry" />
        </mxCell>
        <mxCell id="tMqXF5HZhTGsrodSmE5L-90" value="" style="edgeStyle=elbowEdgeStyle;elbow=horizontal;rounded=0;fontColor=#000000;endArrow=none;endFill=0;strokeWidth=8;strokeColor=#23445D;entryX=0;entryY=0.5;entryDx=0;entryDy=0;align=center;" edge="1" parent="1">
          <mxGeometry width="100" height="100" relative="1" as="geometry">
            <mxPoint x="680" y="350" as="sourcePoint" />
            <mxPoint x="710" y="380" as="targetPoint" />
            <Array as="points">
              <mxPoint x="680" y="440" />
            </Array>
          </mxGeometry>
        </mxCell>
        <mxCell id="tMqXF5HZhTGsrodSmE5L-91" value="" style="edgeStyle=elbowEdgeStyle;elbow=horizontal;rounded=0;fontColor=#000000;endArrow=none;endFill=0;strokeWidth=8;strokeColor=#23445D;align=center;" edge="1" parent="1">
          <mxGeometry width="100" height="100" relative="1" as="geometry">
            <mxPoint x="301.8100000000002" y="1580" as="sourcePoint" />
            <mxPoint x="328" y="1610" as="targetPoint" />
            <Array as="points">
              <mxPoint x="300" y="1612" />
            </Array>
          </mxGeometry>
        </mxCell>
      </root>
    </mxGraphModel>
  </diagram>
</mxfile>
